<svg width="23" height="25" viewBox="0 0 23 25" fill="none" xmlns="http://www.w3.org/2000/svg">
<path d="M11.582 24.3718C17.7952 24.3718 22.832 19.015 22.832 12.4071C22.832 5.79916 17.7952 0.442383 11.582 0.442383C5.36883 0.442383 0.332031 5.79916 0.332031 12.4071C0.332031 19.015 5.36883 24.3718 11.582 24.3718Z" fill="#F2F3F5"/>
<path d="M17.0574 7.54676C17.0141 7.41382 16.9624 7.37659 16.8824 7.34469C16.7074 7.27378 16.4107 7.38014 16.4107 7.38014C16.4107 7.38014 5.89574 11.4003 5.29574 11.8452C5.16574 11.9409 5.12241 11.9959 5.10241 12.0614C4.99907 12.3787 5.32241 12.5188 5.32241 12.5188L8.03241 13.4582C8.03241 13.4582 8.13407 13.4742 8.16907 13.4493C8.78574 13.0346 14.3724 9.28385 14.6941 9.158C14.7457 9.14205 14.7824 9.15978 14.7724 9.197C14.6441 9.67913 9.79241 14.2647 9.79241 14.2647C9.79241 14.2647 9.77407 14.2895 9.76241 14.3179L9.75574 14.3143L9.50241 17.1735C9.50241 17.1735 9.39574 18.0491 10.2207 17.1735C10.8024 16.5549 11.3641 16.039 11.6457 15.7873C12.5774 16.4715 13.5807 17.2284 14.0124 17.6237C14.2291 17.8222 14.4124 17.8541 14.5607 17.8488C14.9707 17.8329 15.0857 17.3525 15.0857 17.3525C15.0857 17.3525 17.0024 9.15091 17.0657 8.05193C17.0724 7.94381 17.0807 7.87645 17.0807 7.802C17.0807 7.6992 17.0724 7.59639 17.0574 7.54676Z" fill="#0C1111"/>
</svg>
