<svg width="23" height="25" viewBox="0 0 23 25" fill="none" xmlns="http://www.w3.org/2000/svg">
<path d="M22.832 12.4071C22.832 19.0152 17.7954 24.3718 11.582 24.3718C5.36863 24.3718 0.332031 19.0152 0.332031 12.4071C0.332031 5.79895 5.36863 0.442383 11.582 0.442383C17.7954 0.442383 22.832 5.79895 22.832 12.4071Z" fill="#F2F3F5"/>
<path d="M17.7173 9.10017C17.5303 8.94051 16.8109 8.9488 16.0976 8.95088C15.368 8.95502 14.6444 8.95917 14.4779 9.02552C14.3238 9.08773 13.9744 9.93581 13.5222 10.8088C13.0103 11.7979 12.3752 12.7475 11.9764 12.7413C11.4585 12.733 11.5777 11.1094 11.6085 9.91715C11.6291 9.12713 11.5016 8.88038 11.3865 8.80158C11.109 8.61496 10.3567 8.43042 10.3567 8.43042C10.3567 8.43042 8.10191 8.25831 7.7792 9.2474C8.20879 9.30338 8.94876 9.16653 8.66305 12.2209C8.64866 12.3681 8.31773 13.6267 7.26328 11.9243C7.00224 11.5034 5.99095 8.96125 5.64358 8.95088C4.47402 8.91977 3.32913 8.87001 2.91804 9.10017C2.54395 9.3096 3.42368 11.0659 4.90567 13.4111C6.11839 15.327 7.40305 16.8241 9.61884 17.2015C10.032 17.243 11.1234 17.2928 11.4605 17.1269C11.6948 17.0108 11.4091 15.3499 12.1964 15.1943C12.5499 15.1238 13.8942 16.9195 14.406 17.1269C14.7164 17.2513 15.3988 17.299 16.0997 17.2762C16.8561 17.2513 17.7112 17.3425 17.7934 16.8304C17.9784 15.6837 15.5118 14.1949 15.4378 13.4857C15.3844 12.9777 16.3402 12.0425 16.8376 11.3313C17.4419 10.4666 18.0976 9.42365 17.7215 9.10225L17.7173 9.10017Z" fill="#0C1111"/>
</svg>
