<svg width="23" height="25" viewBox="0 0 23 25" fill="none" xmlns="http://www.w3.org/2000/svg">
<path d="M22.5 12.4081C22.5 19.0162 17.4634 24.3728 11.25 24.3728C5.03659 24.3728 0 19.0162 0 12.4081C0 5.79993 5.03659 0.443359 11.25 0.443359C17.4634 0.443359 22.5 5.79993 22.5 12.4081Z" fill="#F2F3F5"/>
<path d="M17.7779 9.48575C17.7779 9.48575 17.6473 8.46697 17.2497 8.01846C16.7436 7.43111 16.1753 7.42684 15.9163 7.39267C14.0506 7.24316 11.2532 7.24316 11.2532 7.24316H11.2472C11.2472 7.24316 8.44974 7.24316 6.58411 7.39267C6.32304 7.42684 5.75672 7.42898 5.24865 8.01846C4.85102 8.46697 4.72049 9.48575 4.72049 9.48575C4.72049 9.48575 4.58594 10.6818 4.58594 11.8778V12.9991C4.58594 14.1952 4.72049 15.3912 4.72049 15.3912C4.72049 15.3912 4.85102 16.41 5.24865 16.8585C5.75672 17.448 6.42345 17.4288 6.71866 17.4886C7.78502 17.6018 11.2492 17.6381 11.2492 17.6381C11.2492 17.6381 14.0486 17.6317 15.9143 17.4843C16.1733 17.4501 16.7416 17.448 17.2477 16.8585C17.6473 16.41 17.7759 15.3912 17.7759 15.3912C17.7759 15.3912 17.9104 14.1952 17.9104 12.9991V11.8778C17.9104 10.6818 17.7759 9.48575 17.7759 9.48575H17.7779ZM13.4723 12.29L9.87356 14.3575V11.173V10.2055L11.4962 11.1453L13.4723 12.29Z" fill="#0C1111"/>
</svg>
