<svg width="119" height="24" viewBox="0 0 119 24" fill="none" xmlns="http://www.w3.org/2000/svg">
<g clip-path="url(#clip0_1_350)">
<path fill-rule="evenodd" clip-rule="evenodd" d="M6.53551 15.5977H15.8852C16.592 15.5977 17.0951 15.8637 17.3943 16.3957C17.5417 16.7358 17.5547 17.0934 17.4333 17.4685L17.1384 18.3755C16.9563 18.9381 16.5313 19.4221 15.8591 19.8233C15.5686 20.0021 15.1957 20.1286 14.7403 20.2071C14.6102 20.2289 14.4151 20.2376 14.1592 20.2376H7.03855L6.11486 23.0939C6.11486 23.0939 6.10619 23.1114 6.09318 23.1114H4.11136C4.11136 23.1114 4.09402 23.107 4.09835 23.0939L6.51383 15.6151C6.51383 15.6151 6.52683 15.5977 6.53551 15.5977ZM7.97091 17.3551L7.61098 18.4715H14.9571C15.0482 18.4627 15.1046 18.4235 15.1263 18.3581L15.4125 17.4772C15.4255 17.3987 15.3951 17.3551 15.3127 17.3551H7.97091Z" fill="black"/>
<path fill-rule="evenodd" clip-rule="evenodd" d="M19.1803 15.6015C21.2055 15.6015 22.8794 15.6015 24.2064 15.6015H28.3131C28.4085 15.6015 28.5299 15.6015 28.6774 15.5928C28.8855 15.5928 29.1414 15.6538 29.4363 15.7803C29.5924 15.8501 29.7528 15.9809 29.9176 16.1771C30.1908 16.5522 30.2516 16.9795 30.0954 17.4592L29.8005 18.3663C29.6314 18.8852 29.2411 19.3475 28.634 19.7443C28.2307 19.9841 27.8491 20.128 27.4935 20.1847C27.3504 20.2109 27.1249 20.2283 26.817 20.2283H25.9063C26.895 21.4276 27.6843 22.3826 28.2697 23.0934L25.3946 23.0978L23.0051 20.2283H19.7007L18.777 23.0847C18.777 23.0934 18.7683 23.1021 18.7553 23.1021H16.7735C16.7735 23.1021 16.7561 23.1021 16.7605 23.0891L19.1759 15.6102L19.1889 15.5928L19.1803 15.6015ZM27.9185 17.3589H20.6244L20.2644 18.4709H27.6106C27.6973 18.4709 27.758 18.423 27.7884 18.3314L28.0659 17.4723C28.0833 17.4156 28.0616 17.3764 27.9965 17.3502H27.9141L27.9185 17.3589Z" fill="black"/>
<path fill-rule="evenodd" clip-rule="evenodd" d="M33.9808 15.5889H41.2012C41.908 15.5889 42.4111 15.8549 42.7146 16.3869C42.8577 16.7227 42.8708 17.0803 42.7493 17.4553L41.5307 21.2274C41.3356 21.838 40.8629 22.3525 40.117 22.7625C39.6574 22.9849 39.2063 23.0982 38.7727 23.0982H31.5523C30.8498 23.0982 30.3467 22.8322 30.0432 22.3002C29.8957 21.9644 29.8827 21.6068 30.0041 21.2318L31.2227 17.4597C31.4222 16.8492 31.8949 16.3346 32.6408 15.9247C33.1004 15.7022 33.5428 15.5889 33.9808 15.5889ZM33.2436 17.464L32.0293 21.2231C32.0163 21.3059 32.051 21.3495 32.1334 21.3495H39.3364C39.4318 21.3365 39.4926 21.2928 39.5142 21.2231L40.7285 17.464C40.7415 17.3855 40.7111 17.3419 40.6287 17.3419H33.4257C33.3259 17.355 33.2652 17.3943 33.2436 17.464Z" fill="black"/>
<path fill-rule="evenodd" clip-rule="evenodd" d="M50.0958 19.2217C50.0958 19.2217 50.1131 19.226 50.1088 19.2391L49.5363 21.0096C49.5363 21.0096 49.5233 21.0271 49.5147 21.0271H42.7539C42.7539 21.0271 42.7366 21.0227 42.7409 21.0096L43.3134 19.2391C43.3134 19.2391 43.3264 19.2217 43.335 19.2217H50.0958Z" fill="black"/>
<path fill-rule="evenodd" clip-rule="evenodd" d="M52.329 15.5944H63.8253C63.8253 15.5944 63.834 15.5988 63.834 15.6119L63.2789 17.3344C63.2789 17.3344 63.2702 17.3519 63.2616 17.3519H58.5217L56.6656 23.0951C56.6656 23.0951 56.6569 23.1125 56.6439 23.1125H54.6534C54.6534 23.1125 54.6448 23.1082 54.6448 23.0951L56.5008 17.3519H51.7609C51.7609 17.3519 51.7436 17.3475 51.7479 17.3344L52.303 15.6119C52.303 15.6119 52.316 15.5944 52.3247 15.5944H52.329ZM117.46 17.4216L119.004 12.6465L118.882 12.5506C115.626 9.99948 115.392 6.51516 115.595 3.44513L115.608 3.24017L107.234 1.91884L106.302 4.26061C104.602 4.48301 102.39 4.73594 100.157 4.73594C97.8067 4.73594 95.6861 4.46557 93.6696 3.90738C87.6505 2.23718 82.7024 1.17749 78.11 0.571337C74.3328 0.0742017 70.5947 0.00878906 67.4333 0.00878906C66.1714 0.00878906 64.9094 0.0218716 63.6518 0.0349541C57.8842 0.104728 52.9275 0.972535 48.5042 2.67762C42.073 5.1633 35.7893 6.41486 29.2975 6.51516C22.3026 6.62418 15.0345 8.04582 7.69699 10.7365C5.51569 11.5301 1.76022 13.2657 1.14876 15.9389L0.00390625 21.0062L2.28495 23.4265L2.4454 23.3C2.55815 23.2085 2.69258 22.9948 2.90508 22.6546C3.02216 22.4671 3.19563 22.1793 3.26067 22.127L3.39945 22.018L3.32572 21.8566C3.17394 21.5252 3.01349 21.3028 2.84436 21.0629C2.66656 20.8144 2.48009 20.5571 2.28928 20.1384C3.26068 15.4287 4.07595 14.3865 7.98754 12.7599C13.4516 10.4879 19.5012 9.07934 25.9713 8.56912C27.7493 8.42957 29.4883 8.3816 31.1709 8.33363C33.4129 8.27258 35.7286 8.21153 38.2091 7.92808C39.2109 7.81469 40.308 7.5574 41.57 7.13876C42.3115 6.88583 43.0488 6.62854 43.786 6.37126C48.4044 4.76647 53.1833 3.10499 58.1747 2.30259C64.0812 1.36065 70.2478 1.36065 78.1057 2.32876C82.2037 2.83461 86.3148 3.86377 90.2914 4.8624C92 5.28977 93.7694 5.73457 95.5127 6.12705C97.0348 6.47592 98.6914 6.63727 100.73 6.63727C101.814 6.63727 102.911 6.59366 103.973 6.55005C105.027 6.50644 106.111 6.46283 107.178 6.46283H107.555L107.62 6.34945C107.933 5.80435 108.089 5.40315 108.245 5.01503C108.375 4.68361 108.501 4.36963 108.713 3.98151L113.479 4.67489C113.887 10.2829 115.795 12.1755 116.614 12.991C116.758 13.1306 116.918 13.2919 116.94 13.3137L116.224 15.6468C116.12 15.6337 116.016 15.6162 115.903 15.6162H108.666C108.141 15.6162 107.603 15.7819 107.057 16.1177C106.476 16.5102 106.103 16.9637 105.933 17.487L104.715 21.2548C104.576 21.6822 104.611 22.0746 104.81 22.4322C105.136 22.8945 105.613 23.1256 106.237 23.1256H113.475C113.908 23.1256 114.355 23.0122 114.819 22.7898C115.561 22.3755 116.033 21.8653 116.233 21.2548L117.122 18.5031C117.122 18.5031 117.122 18.49 117.109 18.4857H109.654C109.654 18.4857 109.637 18.49 109.633 18.5031L109.073 20.2387C109.073 20.2387 109.073 20.2562 109.086 20.2562H114.542L114.221 21.2504C114.199 21.3202 114.138 21.3595 114.043 21.3725H106.84C106.757 21.3725 106.727 21.3333 106.74 21.2504L107.954 17.4914C107.976 17.4216 108.037 17.3824 108.132 17.3693H115.335C115.37 17.3693 115.405 17.3824 115.431 17.4129C115.439 17.4652 115.444 17.4914 115.452 17.4914H117.443H117.447L117.451 17.487C117.456 17.4696 117.456 17.4565 117.464 17.4391L117.46 17.4216ZM93.8951 15.5988H96.7573C98.4399 17.6266 100.027 19.5454 101.519 21.3464L103.371 15.6119C103.371 15.6119 103.384 15.5944 103.392 15.5944H105.374C105.374 15.5944 105.391 15.5988 105.387 15.6119L102.972 23.0907C102.972 23.0907 102.959 23.1082 102.95 23.1082H100.088C98.4052 21.0804 96.818 19.1616 95.3262 17.3606L93.4745 23.0951C93.4745 23.0951 93.4658 23.1125 93.4528 23.1125H91.471C91.471 23.1125 91.4536 23.1082 91.458 23.0951L93.8734 15.6162C93.8734 15.6162 93.8865 15.5988 93.8951 15.5988ZM90.3044 15.5944H92.4727C92.4727 15.5944 92.4987 15.6075 92.4944 15.6206L90.0833 23.082C90.0833 23.082 90.0659 23.1082 90.0442 23.1082H87.876C87.876 23.1082 87.8499 23.0994 87.8543 23.082L90.2654 15.6206C90.2654 15.6206 90.2871 15.5944 90.3044 15.5944ZM77.633 15.5988H80.4951C82.1777 17.6266 83.7649 19.5454 85.2567 21.3464L87.1084 15.6119C87.1084 15.6119 87.1257 15.5944 87.1301 15.5944H89.1119C89.1119 15.5944 89.1292 15.5988 89.1249 15.6119L86.7094 23.0907C86.7094 23.0907 86.6964 23.1082 86.6877 23.1082H83.8256C82.143 21.0804 80.5558 19.1616 79.064 17.3606L77.2123 23.0951C77.2123 23.0951 77.2036 23.1125 77.1906 23.1125H75.2088C75.2088 23.1125 75.1915 23.1082 75.1958 23.0951L77.6113 15.6162C77.6113 15.6162 77.6243 15.5988 77.633 15.5988ZM64.9788 15.5988C64.9788 15.5988 64.9571 15.6032 64.9571 15.6162L63.1401 21.2417C63.0187 21.6168 63.0317 21.9787 63.1792 22.3145C63.4827 22.8465 63.9858 23.1125 64.6883 23.1125H71.9043C72.338 23.1125 72.7847 22.9991 73.2487 22.7767C73.9902 22.3625 74.4629 21.8522 74.6624 21.2417L76.4794 15.6162C76.4794 15.6162 76.4794 15.5988 76.4664 15.5988H74.4846C74.4846 15.5988 74.4673 15.6032 74.4629 15.6162L72.6459 21.233C72.6242 21.3028 72.5635 21.342 72.4681 21.3551H65.265C65.1827 21.3551 65.1523 21.3159 65.1653 21.233L66.9823 15.6162C66.9823 15.6162 66.9823 15.5988 66.9693 15.5988H64.9875H64.9788Z" fill="#BC2828"/>
</g>
<defs>
<clipPath id="clip0_1_350">
<rect width="119" height="23.4134" fill="white"/>
</clipPath>
</defs>
</svg>
