<svg width="119" height="24" viewBox="0 0 119 24" fill="none" xmlns="http://www.w3.org/2000/svg">
<g clip-path="url(#clip0_1_175)">
<path fill-rule="evenodd" clip-rule="evenodd" d="M6.53533 15.5981H15.885C16.5918 15.5981 17.0949 15.8642 17.3941 16.3962C17.5416 16.7363 17.5546 17.0939 17.4331 17.4689L17.1383 18.376C16.9561 18.9385 16.5311 19.4226 15.859 19.8238C15.5684 20.0026 15.1955 20.1291 14.7401 20.2076C14.61 20.2294 14.4149 20.2381 14.159 20.2381H7.03837L6.11468 23.0944C6.11468 23.0944 6.106 23.1119 6.09299 23.1119H4.11118C4.11118 23.1119 4.09383 23.1075 4.09817 23.0944L6.51364 15.6156C6.51364 15.6156 6.52665 15.5981 6.53533 15.5981ZM7.97073 17.3556L7.6108 18.4719H14.957C15.048 18.4632 15.1044 18.424 15.1261 18.3586L15.4123 17.4777C15.4253 17.3992 15.395 17.3556 15.3126 17.3556H7.97073Z" fill="white"/>
<path fill-rule="evenodd" clip-rule="evenodd" d="M19.1801 15.6025C21.2053 15.6025 22.8792 15.6025 24.2062 15.6025H28.3129C28.4083 15.6025 28.5297 15.6025 28.6772 15.5938C28.8853 15.5938 29.1412 15.6548 29.4361 15.7813C29.5922 15.851 29.7527 15.9819 29.9175 16.1781C30.1907 16.5531 30.2514 16.9805 30.0953 17.4602L29.8004 18.3672C29.6312 18.8862 29.2409 19.3484 28.6338 19.7453C28.2305 19.9851 27.8489 20.129 27.4933 20.1857C27.3502 20.2119 27.1247 20.2293 26.8168 20.2293H25.9061C26.8949 21.4286 27.6841 22.3836 28.2696 23.0944L25.3944 23.0988L23.0049 20.2293H19.7005L18.7768 23.0857C18.7768 23.0944 18.7681 23.1031 18.7551 23.1031H16.7733C16.7733 23.1031 16.7559 23.1031 16.7603 23.09L19.1758 15.6112L19.1888 15.5938L19.1801 15.6025ZM27.9183 17.3599H20.6242L20.2642 18.4719H27.6104C27.6971 18.4719 27.7578 18.4239 27.7882 18.3324L28.0657 17.4733C28.0831 17.4166 28.0614 17.3773 27.9963 17.3512H27.914L27.9183 17.3599Z" fill="white"/>
<path fill-rule="evenodd" clip-rule="evenodd" d="M33.9806 15.5894H41.201C41.9079 15.5894 42.4109 15.8554 42.7145 16.3874C42.8576 16.7232 42.8706 17.0808 42.7491 17.4558L41.5306 21.2279C41.3354 21.8384 40.8627 22.353 40.1168 22.7629C39.6572 22.9853 39.2062 23.0987 38.7725 23.0987H31.5521C30.8496 23.0987 30.3465 22.8327 30.043 22.3007C29.8955 21.9649 29.8825 21.6073 30.0039 21.2323L31.2225 17.4602C31.422 16.8496 31.8947 16.3351 32.6406 15.9251C33.1003 15.7027 33.5426 15.5894 33.9806 15.5894ZM33.2434 17.4645L32.0291 21.2236C32.0161 21.3064 32.0508 21.35 32.1332 21.35H39.3363C39.4317 21.3369 39.4924 21.2933 39.5141 21.2236L40.7283 17.4645C40.7413 17.386 40.711 17.3424 40.6286 17.3424H33.4255C33.3258 17.3555 33.2651 17.3947 33.2434 17.4645Z" fill="white"/>
<path fill-rule="evenodd" clip-rule="evenodd" d="M50.0956 19.2222C50.0956 19.2222 50.1129 19.2265 50.1086 19.2396L49.5362 21.0101C49.5362 21.0101 49.5232 21.0276 49.5145 21.0276H42.7538C42.7538 21.0276 42.7364 21.0232 42.7407 21.0101L43.3132 19.2396C43.3132 19.2396 43.3262 19.2222 43.3349 19.2222H50.0956Z" fill="white"/>
<path fill-rule="evenodd" clip-rule="evenodd" d="M52.329 15.5944H63.8253C63.8253 15.5944 63.834 15.5988 63.834 15.6119L63.2789 17.3344C63.2789 17.3344 63.2702 17.3519 63.2616 17.3519H58.5217L56.6656 23.0951C56.6656 23.0951 56.6569 23.1125 56.6439 23.1125H54.6534C54.6534 23.1125 54.6448 23.1082 54.6448 23.0951L56.5008 17.3519H51.7609C51.7609 17.3519 51.7436 17.3475 51.7479 17.3344L52.303 15.6119C52.303 15.6119 52.316 15.5944 52.3247 15.5944H52.329ZM117.46 17.4216L119.004 12.6465L118.882 12.5506C115.626 9.99948 115.392 6.51516 115.595 3.44513L115.608 3.24017L107.234 1.91884L106.302 4.26061C104.602 4.48301 102.39 4.73594 100.157 4.73594C97.8067 4.73594 95.6861 4.46557 93.6696 3.90738C87.6505 2.23718 82.7024 1.17749 78.11 0.571337C74.3328 0.0742017 70.5947 0.00878906 67.4333 0.00878906C66.1714 0.00878906 64.9094 0.0218716 63.6518 0.0349541C57.8842 0.104728 52.9275 0.972535 48.5042 2.67762C42.073 5.1633 35.7893 6.41486 29.2975 6.51516C22.3026 6.62418 15.0345 8.04582 7.69699 10.7365C5.51569 11.5301 1.76022 13.2657 1.14876 15.9389L0.00390625 21.0062L2.28495 23.4265L2.4454 23.3C2.55815 23.2085 2.69258 22.9948 2.90508 22.6546C3.02216 22.4671 3.19563 22.1793 3.26067 22.127L3.39945 22.018L3.32572 21.8566C3.17394 21.5252 3.01349 21.3028 2.84436 21.0629C2.66656 20.8144 2.48009 20.5571 2.28928 20.1384C3.26068 15.4287 4.07595 14.3865 7.98754 12.7599C13.4516 10.4879 19.5012 9.07934 25.9713 8.56912C27.7493 8.42957 29.4883 8.3816 31.1709 8.33363C33.4129 8.27258 35.7286 8.21153 38.2091 7.92808C39.2109 7.81469 40.308 7.5574 41.57 7.13876C42.3115 6.88583 43.0488 6.62854 43.786 6.37126C48.4044 4.76647 53.1833 3.10499 58.1747 2.30259C64.0812 1.36065 70.2478 1.36065 78.1057 2.32876C82.2037 2.83461 86.3148 3.86377 90.2914 4.8624C92 5.28977 93.7694 5.73457 95.5127 6.12705C97.0348 6.47592 98.6914 6.63727 100.73 6.63727C101.814 6.63727 102.911 6.59366 103.973 6.55005C105.027 6.50644 106.111 6.46283 107.178 6.46283H107.555L107.62 6.34945C107.933 5.80435 108.089 5.40315 108.245 5.01503C108.375 4.68361 108.501 4.36963 108.713 3.98151L113.479 4.67489C113.887 10.2829 115.795 12.1755 116.614 12.991C116.758 13.1306 116.918 13.2919 116.94 13.3137L116.224 15.6468C116.12 15.6337 116.016 15.6162 115.903 15.6162H108.666C108.141 15.6162 107.603 15.7819 107.057 16.1177C106.476 16.5102 106.103 16.9637 105.933 17.487L104.715 21.2548C104.576 21.6822 104.611 22.0746 104.81 22.4322C105.136 22.8945 105.613 23.1256 106.237 23.1256H113.475C113.908 23.1256 114.355 23.0122 114.819 22.7898C115.561 22.3755 116.033 21.8653 116.233 21.2548L117.122 18.5031C117.122 18.5031 117.122 18.49 117.109 18.4857H109.654C109.654 18.4857 109.637 18.49 109.633 18.5031L109.073 20.2387C109.073 20.2387 109.073 20.2562 109.086 20.2562H114.542L114.221 21.2504C114.199 21.3202 114.138 21.3595 114.043 21.3725H106.84C106.757 21.3725 106.727 21.3333 106.74 21.2504L107.954 17.4914C107.976 17.4216 108.037 17.3824 108.132 17.3693H115.335C115.37 17.3693 115.405 17.3824 115.431 17.4129C115.439 17.4652 115.444 17.4914 115.452 17.4914H117.443H117.447L117.451 17.487C117.456 17.4696 117.456 17.4565 117.464 17.4391L117.46 17.4216ZM93.8951 15.5988H96.7573C98.4399 17.6266 100.027 19.5454 101.519 21.3464L103.371 15.6119C103.371 15.6119 103.384 15.5944 103.392 15.5944H105.374C105.374 15.5944 105.391 15.5988 105.387 15.6119L102.972 23.0907C102.972 23.0907 102.959 23.1082 102.95 23.1082H100.088C98.4052 21.0804 96.818 19.1616 95.3262 17.3606L93.4745 23.0951C93.4745 23.0951 93.4658 23.1125 93.4528 23.1125H91.471C91.471 23.1125 91.4536 23.1082 91.458 23.0951L93.8734 15.6162C93.8734 15.6162 93.8865 15.5988 93.8951 15.5988ZM90.3044 15.5944H92.4727C92.4727 15.5944 92.4987 15.6075 92.4944 15.6206L90.0833 23.082C90.0833 23.082 90.0659 23.1082 90.0442 23.1082H87.876C87.876 23.1082 87.8499 23.0994 87.8543 23.082L90.2654 15.6206C90.2654 15.6206 90.2871 15.5944 90.3044 15.5944ZM77.633 15.5988H80.4951C82.1777 17.6266 83.7649 19.5454 85.2567 21.3464L87.1084 15.6119C87.1084 15.6119 87.1257 15.5944 87.1301 15.5944H89.1119C89.1119 15.5944 89.1292 15.5988 89.1249 15.6119L86.7094 23.0907C86.7094 23.0907 86.6964 23.1082 86.6877 23.1082H83.8256C82.143 21.0804 80.5558 19.1616 79.064 17.3606L77.2123 23.0951C77.2123 23.0951 77.2036 23.1125 77.1906 23.1125H75.2088C75.2088 23.1125 75.1915 23.1082 75.1958 23.0951L77.6113 15.6162C77.6113 15.6162 77.6243 15.5988 77.633 15.5988ZM64.9788 15.5988C64.9788 15.5988 64.9571 15.6032 64.9571 15.6162L63.1401 21.2417C63.0187 21.6168 63.0317 21.9787 63.1792 22.3145C63.4827 22.8465 63.9858 23.1125 64.6883 23.1125H71.9043C72.338 23.1125 72.7847 22.9991 73.2487 22.7767C73.9902 22.3625 74.4629 21.8522 74.6624 21.2417L76.4794 15.6162C76.4794 15.6162 76.4794 15.5988 76.4664 15.5988H74.4846C74.4846 15.5988 74.4673 15.6032 74.4629 15.6162L72.6459 21.233C72.6242 21.3028 72.5635 21.342 72.4681 21.3551H65.265C65.1827 21.3551 65.1523 21.3159 65.1653 21.233L66.9823 15.6162C66.9823 15.6162 66.9823 15.5988 66.9693 15.5988H64.9875H64.9788Z" fill="#BC2828"/>
</g>
<defs>
<clipPath id="clip0_1_175">
<rect width="119" height="23.4134" fill="white"/>
</clipPath>
</defs>
</svg>
